<?xml version="1.0" encoding="UTF-8"?>
<svg viewBox="0 0 1153.53 469.6" xmlns="http://www.w3.org/2000/svg">
<defs>
<style>.cls-1{fill:#fff;}</style>
</defs>
<g data-name="Layer 2">
<g data-name="Capa 1">
<path class="cls-1" d="M679.39,98.49v89.84c0,44.31-28,64.46-70.76,64.46s-70.75-20.15-70.75-64.46V98.49h55.55v84.6c0,11.88.37,22.35,15.2,22.35s15.25-10.47,15.25-22.35V98.49Z"/>
<path class="cls-1" d="M699.07,98.49h53.29l49.9,84.2h1.62c-2.24-12.7-4.66-25.8-4.66-38.67V98.49h53.12V250.38H799.22L750.35,170.6h-1.63c1.84,10.47,3.45,20.36,3.45,30.42v49.36h-53.1Z"/>
<polygon class="cls-1" points="871.78 98.5 974.58 98.5 974.58 139.98 927.73 139.98 927.73 154.49 970.51 154.49 970.51 193.97 927.73 193.97 927.73 208.88 976.22 208.88 976.22 250.38 871.78 250.38"/>
<path class="cls-1" d="M995.46,250.38h70.35c44.81,0,76.84-28.62,76.84-73.73,0-55.8-39.32-78.16-90.62-78.16H995.46ZM1051,146h3.46c20.28,0,32.62,9.1,32.62,30.42,0,20-14.16,28.42-32.62,28.42H1051Z"/>
<path class="cls-1" d="M533,297v32.05c0,5.61,1.66,6.78,4,6.78,4,0,4.33-2.58,4.41-6.17V297h5.78v31c0,5.73.07,13.27-10.06,13.27-9.2,0-10-6.26-10-14.13V297Z"/>
<polygon class="cls-1" points="559.16 310.01 560.03 324.66 560.03 340.71 554.24 340.71 554.24 297.02 559.8 297.02 570 330.2 570.11 330.1 568.72 312.6 568.72 297.02 574.52 297.02 574.52 340.71 569.12 340.71 558.92 307.04 558.81 307.16"/>
<rect class="cls-1" x="581.56" y="297.02" width="5.8" height="43.7"/>
<polygon class="cls-1" points="597.09 297.02 602.1 329.87 602.2 329.87 602.48 327.16 604.8 312.45 607.48 297.02 612.98 297.02 604.4 340.71 599.76 340.71 591.32 297.02"/>
<polygon class="cls-1" points="632.45 297.02 632.45 302.05 622.65 302.05 622.65 315.8 631.38 315.8 631.38 320.82 622.65 320.82 622.65 335.65 632.45 335.65 632.45 340.71 616.86 340.71 616.86 297.02"/>
<path class="cls-1" d="m648.61 309.47c0-4.16-0.51-7.63-4.9-7.53h-1v14.43c4.39 0.31 5.9-2.49 5.9-6.9zm-11.61-12.47h6.94c4.24 0 10.84 0.24 10.84 11.17 0 4.15-1.2 10.38-6 11.25l8.06 21.27h-6l-7.88-21.38h-0.13v21.38h-5.83z"/>
<path class="cls-1" d="M674.5,303.74a7.83,7.83,0,0,0-4.9-1.86c-3.23,0-5.16,2.61-5.16,5.63a7,7,0,0,0,1.6,4.74l4.41,4.81c4,4,6.22,6.9,6.22,12.81,0,6.14-3.86,11.42-10.3,11.42A10.12,10.12,0,0,1,660,339.2v-5.85a9.49,9.49,0,0,0,5.75,2.26c3.56,0,5.1-2.84,5.1-6.08,0-8.71-12.22-10.42-12.22-21.92,0-6.14,3.25-11.18,9.78-11.18a11.81,11.81,0,0,1,6.17,1.47Z"/>
<rect class="cls-1" x="681.6" y="297.02" width="5.77" height="43.7"/>
<path class="cls-1" d="m700.22 301.94v33.86c9.56 0.26 9.18-8.76 9.18-16.17 0-6.74 0.6-18.27-9.18-17.69zm0.71-4.92c6.85 0 14.62 0.47 14.62 22.61 0 20.15-6.72 21.08-17.11 21.08h-4v-43.71z"/>
<path class="cls-1" d="M732.12,321.36l-2.25-15.9h-.09l-3.47,22.21h7Zm.07-24.34,9.44,43.69h-5.9l-1.61-8.52h-8.66l-1.65,8.52h-5.67l9.5-43.69Z"/>
<path class="cls-1" d="m751.24 301.94v33.86c9.53 0.26 9.15-8.76 9.15-16.17 0-6.74 0.61-18.27-9.15-17.69zm0.69-4.92c6.84 0 14.61 0.47 14.61 22.61 0 20.15-6.72 21.08-17.09 21.08h-4v-43.71z"/>
<polygon class="cls-1" points="799.92 297.02 799.92 302.05 790.1 302.05 790.1 315.8 798.86 315.8 798.86 320.82 790.1 320.82 790.1 335.65 799.92 335.65 799.92 340.71 784.3 340.71 784.3 297.02"/>
<path class="cls-1" d="M817.87,303.74a7.93,7.93,0,0,0-4.93-1.86c-3.19,0-5.15,2.61-5.15,5.63a7,7,0,0,0,1.61,4.74l4.41,4.81c3.94,4,6.2,6.9,6.2,12.81,0,6.14-3.81,11.42-10.26,11.42a10.11,10.11,0,0,1-6.37-2.09v-5.85a9.4,9.4,0,0,0,5.75,2.26c3.56,0,5.09-2.84,5.09-6.08,0-8.71-12.25-10.42-12.25-21.92,0-6.14,3.26-11.18,9.78-11.18a11.72,11.72,0,0,1,6.17,1.47Z"/>
<polygon class="cls-1" points="840.34 297.02 840.34 302.05 833.77 302.05 833.77 340.71 827.99 340.71 827.99 302.05 821.17 302.05 821.17 297.02"/>
<path class="cls-1" d="M852.17,321.36,850,305.46h-.13l-3.46,22.21h6.93Zm.11-24.34,9.39,43.69h-5.85l-1.61-8.52h-8.69l-1.63,8.52H838.2L847.72,297Z"/>
<polygon class="cls-1" points="878.77 297.02 878.77 302.05 872.23 302.05 872.23 340.71 866.42 340.71 866.42 302.05 859.61 302.05 859.61 297.02"/>
<path class="cls-1" d="M890.61,321.36l-2.2-15.9h-.14l-3.46,22.21h6.93Zm.12-24.34,9.38,43.69h-5.85l-1.62-8.52h-8.72l-1.61,8.52h-5.67L886.12,297Z"/>
<polygon class="cls-1" points="909.72 297.02 909.72 335.65 919.45 335.65 919.45 340.71 903.93 340.71 903.93 297.02"/>
<path class="cls-1" d="M945.65,321.36l-2.24-15.9h-.09l-3.48,22.21h7Zm.11-24.34,9.4,43.69H949.3l-1.65-8.52H939l-1.64,8.52H931.7L941.17,297Z"/>
<path class="cls-1" d="m976.64 301.94v33.86c9.56 0.26 9.16-8.76 9.16-16.17 0-6.74 0.62-18.27-9.16-17.69zm0.71-4.92c6.8 0 14.6 0.47 14.6 22.61 0 20.15-6.75 21.08-17.12 21.08h-4v-43.71z"/>
<rect class="cls-1" x="997.85" y="297.02" width="5.78" height="43.7"/>
<path class="cls-1" d="M1024.16,303.74a8,8,0,0,0-4.93-1.86c-3.18,0-5.15,2.61-5.15,5.63a7.07,7.07,0,0,0,1.61,4.74l4.38,4.81c4,4,6.24,6.9,6.24,12.81,0,6.14-3.82,11.42-10.26,11.42a10.12,10.12,0,0,1-6.38-2.09v-5.85a9.4,9.4,0,0,0,5.75,2.26c3.59,0,5.07-2.84,5.07-6.08,0-8.71-12.23-10.42-12.23-21.92,0-6.14,3.26-11.18,9.82-11.18a11.81,11.81,0,0,1,6.15,1.47Z"/>
<polygon class="cls-1" points="1046.6 297.02 1046.6 302.05 1040.1 302.05 1040.1 340.71 1034.3 340.71 1034.3 302.05 1027.5 302.05 1027.5 297.02"/>
<path class="cls-1" d="M1058.48,321.36l-2.22-15.9h-.09l-3.49,22.21h6.94Zm.09-24.34,9.39,43.69h-5.85l-1.61-8.52h-8.69l-1.63,8.52h-5.66L1054,297Z"/>
<polygon class="cls-1" points="1076.7 310.01 1077.6 324.66 1077.6 340.71 1071.8 340.71 1071.8 297.02 1077.4 297.02 1087.6 330.2 1087.7 330.1 1086.3 312.6 1086.3 297.02 1092.1 297.02 1092.1 340.71 1086.7 340.71 1076.5 307.04 1076.4 307.16"/>
<path class="cls-1" d="M1116.07,303a9,9,0,0,0-3.72-1.08c-8.12,0-8.16,11.83-8.16,17.27,0,5.81.47,16.7,8.42,16.7a7.37,7.37,0,0,0,3.46-.87v5.08a8.17,8.17,0,0,1-4.65,1.23c-11.82,0-13.4-12.56-13.4-21.74,0-8.74,1.08-23.12,13-23.12a9.27,9.27,0,0,1,5.07,1.28Z"/>
<rect class="cls-1" x="1120.5" y="297.02" width="5.78" height="43.7"/>
<path class="cls-1" d="M1144,321.36l-2.18-15.9h-.14l-3.49,22.21h7Zm.13-24.34,9.36,43.69h-5.83l-1.63-8.52h-8.68l-1.61,8.52h-5.71l9.5-43.69Z"/>
<path class="cls-1" d="M234.9,323.19a88.56,88.56,0,0,0,88.58-88.56V17.09A240.6,240.6,0,0,0,292.7,6.93v227.7a57.8,57.8,0,0,1-115.6,0V6.93a240.54,240.54,0,0,0-30.74,10.16V234.63A88.54,88.54,0,0,0,234.9,323.19Z"/>
<path class="cls-1" d="M234.9,274.4a39.78,39.78,0,0,0,39.77-39.77V3.19A236,236,0,0,0,243.9,0V234.63a9,9,0,1,1-18,0V0a236.26,236.26,0,0,0-30.8,3.19V234.63A39.77,39.77,0,0,0,234.9,274.4Z"/>
<path class="cls-1" d="M234.9,372.1A137.49,137.49,0,0,0,372.39,234.63V44.23A238.35,238.35,0,0,0,341.5,25.37V234.63a106.59,106.59,0,1,1-213.18,0V25.37A234.86,234.86,0,0,0,97.45,44.23v190.4A137.46,137.46,0,0,0,234.9,372.1Z"/>
<path class="cls-1" d="M234.9,421c103,0,186.39-83.48,186.39-186.39V91.75a237.85,237.85,0,0,0-30.84-33.07v176a155.53,155.53,0,0,1-311,0V58.68A237,237,0,0,0,48.5,91.79V234.63C48.5,337.54,132,421,234.9,421Z"/>
<path class="cls-1" d="M439.34,119V234.63c0,112.89-91.53,204.43-204.44,204.43S30.48,347.52,30.48,234.63l-.71-1.91V120.21A234.06,234.06,0,0,0,0,234.69C0,364.42,105.17,469.6,234.9,469.6S469.81,364.42,469.81,234.69A233.71,233.71,0,0,0,439.34,119Z"/>
</g>
</g>
</svg>
